<svg xmlns="http://www.w3.org/2000/svg" width="48" height="48" viewBox="0 0 48 48">
    <g fill="none" fill-rule="evenodd">
        <g fill-rule="nonzero">
            <g>
                <g transform="translate(-112 -1008) translate(112 1008)">
                    <circle cx="24" cy="24" r="24" fill="#008DE4"/>
                    <g fill="#FFF">
                        <path d="M21.707 0H9.643l-1 5.603 10.892.015c5.364 0 6.95 1.953 6.904 5.189-.025 1.661-.74 4.468-1.05 5.378-.826 2.423-2.524 5.194-8.888 5.184L5.91 21.363l-1.005 5.608h12.04c4.247 0 6.052-.495 7.965-1.38 4.242-1.963 6.766-6.16 7.776-11.635C34.196 5.802 32.319 0 21.707 0" transform="translate(7.314 10.514)"/>
                        <path d="M4.431 10.669c-3.161 0-3.615 2.065-3.91 3.313C.126 15.617 0 16.277 0 16.277h12.355c3.162 0 3.616-2.065 3.911-3.313.393-1.636.52-2.295.52-2.295H4.432z" transform="translate(7.314 10.514)"/>
                    </g>
                </g>
            </g>
        </g>
    </g>
</svg>
