<svg width="96" height="96" viewBox="0 0 96 96" fill="none" xmlns="http://www.w3.org/2000/svg">
<path d="M48 0C38.5065 0 29.2262 2.81515 21.3326 8.08946C13.4391 13.3638 7.28681 20.8603 3.6538 29.6312C0.0207976 38.402 -0.929762 48.0532 0.922328 57.3643C2.77442 66.6754 7.34597 75.2282 14.0589 81.9411C20.7718 88.654 29.3246 93.2256 38.6357 95.0777C47.9468 96.9298 57.598 95.9792 66.3688 92.3462C75.1397 88.7132 82.6362 82.5609 87.9105 74.6674C93.1849 66.7738 96 57.4935 96 48C96 41.6965 94.7584 35.4548 92.3462 29.6312C89.934 23.8076 86.3983 18.5161 81.9411 14.0589C77.4839 9.60166 72.1924 6.06601 66.3688 3.65378C60.5452 1.24156 54.3035 0 48 0V0ZM48.7779 49.5791L43.7852 66.4267H70.4906C70.7029 66.4272 70.9123 66.4771 71.1021 66.5724C71.2919 66.6677 71.4569 66.8059 71.5841 66.9759C71.7114 67.1459 71.7974 67.3432 71.8353 67.5522C71.8732 67.7611 71.862 67.9761 71.8026 68.18L69.4804 76.18C69.3696 76.5621 69.1375 76.8979 68.8192 77.1367C68.5008 77.3755 68.1135 77.5042 67.7155 77.5036H26.926L33.8229 54.2119L26.1945 56.5341L27.8781 51.0885L35.5182 48.7663L45.2017 16.0464C45.3082 15.663 45.5372 15.325 45.8538 15.0839C46.1703 14.8428 46.5571 14.7119 46.955 14.7112H57.2888C57.5009 14.7104 57.7102 14.7589 57.9004 14.8528C58.0905 14.9467 58.2562 15.0834 58.3846 15.2522C58.5129 15.4211 58.6002 15.6174 58.6398 15.8257C58.6793 16.034 58.67 16.2487 58.6125 16.4528L50.4848 44.1219L58.1132 41.7997L56.4761 47.3382L48.7779 49.5791Z" fill="#345D9D"/>
</svg>
