<svg width="39" height="29" viewBox="0 0 39 29" fill="none" xmlns="http://www.w3.org/2000/svg">
<rect width="39" height="29" rx="4" fill="#E2E2E6"/>
<path d="M24.28 21.7751H16.1816V7.2251H24.2802L24.28 21.7751Z" fill="#FF5F00"/>
<path d="M16.6954 14.5001C16.6954 11.5487 18.0777 8.91943 20.2302 7.22506C18.6007 5.94056 16.5855 5.24348 14.5106 5.24659C9.39934 5.24659 5.25586 9.38949 5.25586 14.5001C5.25586 19.6107 9.39924 23.7536 14.5106 23.7536C16.5856 23.7568 18.6009 23.0596 20.2304 21.7751C18.078 20.0811 16.6954 17.4518 16.6954 14.5001Z" fill="#EB001B"/>
<path d="M35.2078 14.5001C35.2078 19.6107 31.0644 23.7536 25.9529 23.7536C23.8778 23.7567 21.8623 23.0596 20.2324 21.7751C22.3856 20.0808 23.7679 17.4518 23.7679 14.5001C23.7679 11.5485 22.3856 8.91943 20.2324 7.22506C21.8622 5.94062 23.8777 5.24355 25.9528 5.24659C31.0642 5.24659 35.2078 9.38949 35.2078 14.5001Z" fill="#F79E1B"/>
</svg>
