<svg width="39" height="29" viewBox="0 0 39 29" fill="none" xmlns="http://www.w3.org/2000/svg">
<g clip-path="url(#clip0_11029_125170)">
<rect width="39" height="29" rx="4" fill="#E2E2E6"/>
<g clip-path="url(#clip1_11029_125170)">
<path d="M26.3364 9.60114C25.8105 9.39249 24.9763 9.16211 23.9449 9.16211C21.3117 9.16211 19.4575 10.5663 19.4461 12.5738C19.4242 14.0549 20.7737 14.8776 21.7829 15.3714C22.8145 15.8761 23.1652 16.2054 23.1652 16.6553C23.1547 17.3461 22.3317 17.6646 21.564 17.6646C20.4994 17.6646 19.929 17.5004 19.0621 17.116L18.7111 16.9513L18.3379 19.2661C18.9633 19.5511 20.1155 19.8039 21.3117 19.8149C24.1095 19.8149 25.931 18.4326 25.9526 16.2932C25.9632 15.1193 25.2506 14.2198 23.7144 13.4848C22.7818 13.0129 22.2107 12.6948 22.2107 12.212C22.2216 11.7731 22.6937 11.3236 23.7464 11.3236C24.6133 11.3016 25.2502 11.5099 25.7327 11.7184L25.9738 11.8279L26.3364 9.60114Z" fill="#1A1F71"/>
<path d="M16.6704 19.6614H14.0039L15.6717 9.34912H18.3379L16.6704 19.6614Z" fill="#1A1F71"/>
<path fill-rule="evenodd" clip-rule="evenodd" d="M33.1725 9.34912H31.1101C30.474 9.34912 29.9909 9.53546 29.7164 10.2047L25.7559 19.6612H28.5536C28.5536 19.6612 29.0143 18.3884 29.1132 18.1143H32.5367C32.6132 18.4763 32.8548 19.6612 32.8548 19.6612H35.3237L33.1725 9.34912ZM29.8812 16.0081C30.1008 15.4157 30.9457 13.1228 30.9457 13.1228C30.9414 13.1316 30.9757 13.0364 31.0269 12.8943L31.0276 12.8926L31.0279 12.8915C31.1045 12.6793 31.2181 12.3643 31.2966 12.1355L31.483 13.0241C31.483 13.0241 31.9878 15.4925 32.0975 16.0081H29.8812Z" fill="#1A1F71"/>
<path d="M11.7763 9.34912L9.16495 16.3811L8.87961 14.9549L8.87934 14.954L7.94701 10.216C7.79347 9.55734 7.32163 9.37085 6.74015 9.34912H2.45014L2.40625 9.55748C3.45257 9.82505 4.3884 10.2106 5.20838 10.69L7.58496 19.6504H10.4046L14.5957 9.34912H11.7763Z" fill="#1A1F71"/>
</g>
</g>
<defs>
<clipPath id="clip0_11029_125170">
<rect width="39" height="29" rx="4" fill="white"/>
</clipPath>
<clipPath id="clip1_11029_125170">
<rect width="37.998" height="10.6754" fill="white" transform="translate(1.87305 9.16211)"/>
</clipPath>
</defs>
</svg>
